<?xml version="1.0" encoding="UTF-8"?>
<svg id="Layer_1" data-name="Layer 1" xmlns="http://www.w3.org/2000/svg" viewBox="0 0 1000 1000">
  <!-- Vendr logomark on a square sharp-black tile, mark in warm off-white so it
       reads on both light and dark browser chrome. -->
  <rect width="1000" height="1000" fill="#0a0a09"/>
  <g fill="#f4f3f0" transform="translate(116 106) scale(0.765)">
    <path d="M814.82,218.75c-39.6,74.05-76.94,155.95-110.31,243.99-24.17,63.5-46.45,129.98-66.12,199.25-14.25,50.15-26.79,99.76-37.52,148.56H261.54L58.77,372.27c-3.7-7.04-9.2-18.04-16.78-33.19-9.29-18.04-21.29-41.76-36.26-71.62l250.66-15.06c4.69,28.14,13.17,54.57,28.5,97.33l134.13,366.57c.63,.99,1.17,2.35,1.89,4.33,.9,2.25,2.07,5.05,3.16,7.58,2.07,5.41,3.16,8.57,4.51,12.36,1.53,4.51,3.34,9.83,7.04,20.48l6.76,18.49s10.19-133.31,46.9-291.62c35.54-152.98,62.69-223.6,75.23-254.09l250.3-15.06Z"/>
    <path d="M986.3,686.68c3.41,84.81,11.56,112.65,11.56,112.65,0,0-22.27-6.15-113.21-2.5-91.03,3.65-112.74,11.57-112.74,11.57,0,0,6.13-22.73,2.49-113.21-3.63-90.49-11.57-112.74-11.57-112.74,0,0,3.92,1.11,13.54,2.26,8.8,1.09,22.29,2.17,41.72,2.57,15.36,.37,34.58,.24,58.11-.71,23.52-.94,42.6-2.35,57.88-3.95,19.33-1.95,32.7-4.11,41.29-5.9,9.49-1.92,13.41-3.34,13.41-3.34,0,0-5.9,28.4-2.49,113.3Z"/>
  </g>
</svg>
